<svg width="15" height="15" viewBox="0 0 15 15" fill="none" xmlns="http://www.w3.org/2000/svg">
<path d="M7.06152 14.123C3.16504 14.123 0 10.958 0 7.06152C0 3.16504 3.16504 0 7.06152 0C10.958 0 14.123 3.16504 14.123 7.06152C14.123 10.958 10.958 14.123 7.06152 14.123ZM6.30273 10.4385C6.55566 10.4385 6.77441 10.3086 6.93164 10.0762L10.1309 5.08594C10.2266 4.93555 10.3086 4.76465 10.3086 4.60742C10.3086 4.25195 10.001 4.0127 9.65918 4.0127C9.44043 4.0127 9.24902 4.12891 9.10547 4.36816L6.27539 8.89355L4.95605 7.21875C4.78516 7 4.62109 6.91797 4.40918 6.91797C4.05371 6.91797 3.78027 7.20508 3.78027 7.55371C3.78027 7.72461 3.8418 7.88867 3.96484 8.03906L5.63965 10.0762C5.83105 10.3223 6.04297 10.4385 6.30273 10.4385Z" fill="#6CBD5F"/>
</svg>
