<svg width="7" height="11" viewBox="0 0 7 11" fill="none" xmlns="http://www.w3.org/2000/svg">
<path id="&#244;&#128;&#134;&#138;" d="M7 5.49707C7 5.7373 6.91797 5.93652 6.72461 6.12402L2.21289 10.5361C2.06055 10.6885 1.87891 10.7646 1.66211 10.7646C1.22266 10.7646 0.865234 10.4131 0.865234 9.97363C0.865234 9.75098 0.958984 9.55762 1.11719 9.39941L5.125 5.49121L1.11719 1.59473C0.958984 1.43652 0.865234 1.2373 0.865234 1.02051C0.865234 0.581055 1.22266 0.235352 1.66211 0.235352C1.87891 0.235352 2.06055 0.305664 2.21289 0.458008L6.72461 4.87012C6.91211 5.05762 7 5.25684 7 5.49707Z" fill="#BFC6CF"/>
</svg>
