<svg width="181" height="69" viewBox="0 0 181 69" fill="none" xmlns="http://www.w3.org/2000/svg">
<g filter="url(#filter0_d_2_6)">
<mask id="path-1-outside-1_2_6" maskUnits="userSpaceOnUse" x="4" y="0" width="173" height="61" fill="black">
<rect fill="white" x="4" width="173" height="61"/>
<path d="M28.7769 58.6577C23.9278 58.6577 19.7103 57.7832 16.1244 56.0341C12.5385 54.2444 9.78798 51.7225 7.87279 48.4685C5.9576 45.2144 5 41.4316 5 37.12C5 31.1406 6.12059 25.8325 8.36177 21.1955C10.6437 16.5584 13.7202 12.979 17.5914 10.4571C21.4625 7.89452 25.7615 6.61324 30.4883 6.61324C34.8892 6.61324 38.2306 7.75215 40.5125 10.03C42.7945 12.2671 43.9354 15.2365 43.9354 18.938C43.9354 21.4192 43.4872 23.4123 42.5907 24.9173C41.735 26.4223 40.4922 27.1748 38.8622 27.1748C37.7212 27.1748 36.8248 26.9104 36.1728 26.3816C35.5208 25.8528 35.1948 25.08 35.1948 24.0631C35.1948 23.697 35.2763 23.0259 35.4393 22.0496C35.6838 20.8294 35.806 19.8532 35.806 19.121C35.806 15.4195 33.8297 13.5688 29.8771 13.5688C27.1877 13.5688 24.6205 14.4433 22.1756 16.1923C19.7307 17.9414 17.7544 20.5243 16.2467 23.9411C14.7389 27.3171 13.9851 31.344 13.9851 36.0217C13.9851 40.9028 15.3502 44.6856 18.0803 47.3702C20.8105 50.0141 24.8446 51.3361 30.1827 51.3361C32.8314 51.3361 35.5004 51.0107 38.1898 50.3599C40.92 49.6684 43.9354 48.6312 47.2361 47.2482C47.8473 47.0041 48.3567 46.8821 48.7641 46.8821C49.4161 46.8821 49.9051 47.1262 50.2311 47.6143C50.5571 48.1024 50.7201 48.7329 50.7201 49.5057C50.7201 51.9869 49.3754 53.8173 46.686 54.9969C43.7928 56.2578 40.7774 57.1934 37.6397 57.8035C34.5428 58.373 31.5886 58.6577 28.7769 58.6577Z"/>
<path d="M53.9319 25.8935C52.2205 25.8935 50.9369 25.5071 50.0812 24.7342C49.2254 23.9207 48.7976 22.8021 48.7976 21.3785C48.7976 19.9548 49.3477 18.7753 50.4479 17.8397C51.5889 16.8635 52.9947 16.3754 54.6654 16.3754C56.1731 16.3754 57.3956 16.7415 58.3328 17.4736C59.27 18.2058 59.7386 19.243 59.7386 20.5853C59.7386 22.2123 59.2089 23.514 58.1494 24.4902C57.0899 25.4257 55.6841 25.8935 53.9319 25.8935ZM53.4429 58.6577C50.7943 58.6577 48.8587 57.7222 47.6362 55.8511C46.4545 53.98 45.8637 51.4988 45.8637 48.4074C45.8637 46.577 46.0878 44.2382 46.536 41.3909C47.025 38.5029 47.6362 35.8183 48.3697 33.3371C48.7364 32.0355 49.2254 31.1406 49.8367 30.6525C50.4479 30.1644 51.4259 29.9204 52.7706 29.9204C54.8488 29.9204 55.8878 30.6119 55.8878 31.9948C55.8878 33.0117 55.5007 35.3709 54.7265 39.0724C53.7485 43.5467 53.2596 46.577 53.2596 48.1634C53.2596 49.3837 53.4226 50.3192 53.7485 50.97C54.0745 51.6208 54.6246 51.9462 55.3989 51.9462C56.1323 51.9462 57.0492 51.4378 58.1494 50.4209C59.2496 49.404 60.7166 47.7973 62.5503 45.6008C63.0393 45.0314 63.5894 44.7466 64.2006 44.7466C64.7303 44.7466 65.1378 44.9907 65.4231 45.4788C65.749 45.9669 65.912 46.6381 65.912 47.4922C65.912 49.1193 65.5249 50.3802 64.7507 51.2751C60.7166 56.1968 56.9473 58.6577 53.4429 58.6577Z"/>
<path d="M65.3065 58.6577C63.7581 58.6577 62.6579 57.8442 62.0059 56.2172C61.3947 54.5901 61.089 51.9869 61.089 48.4074C61.089 43.1196 61.8429 38.0962 63.3506 33.3371C63.7173 32.1575 64.3082 31.3033 65.1232 30.7746C65.9789 30.2051 67.1606 29.9204 68.6683 29.9204C69.4833 29.9204 70.0538 30.0221 70.3798 30.2254C70.7057 30.4288 70.8687 30.8152 70.8687 31.3847C70.8687 32.0355 70.5631 33.4998 69.9519 35.7777C69.5444 37.4047 69.2184 38.8283 68.9739 40.0486C68.7294 41.2689 68.5257 42.7739 68.3627 44.5636C69.7074 41.0655 71.2151 38.2182 72.8858 36.0217C74.5565 33.8252 76.1864 32.2592 77.7757 31.3237C79.4056 30.3881 80.8929 29.9204 82.2376 29.9204C84.8863 29.9204 86.2106 31.2423 86.2106 33.8862C86.2106 34.415 86.0273 35.6963 85.6605 37.7301C85.3345 39.3571 85.1715 40.374 85.1715 40.7808C85.1715 42.2044 85.6809 42.9162 86.6996 42.9162C87.8406 42.9162 89.3075 42.0214 91.1005 40.2316C91.6302 39.7029 92.1803 39.4385 92.7508 39.4385C93.2805 39.4385 93.688 39.6825 93.9733 40.1706C94.2993 40.6181 94.4623 41.2282 94.4623 42.001C94.4623 43.506 94.0548 44.6856 93.2398 45.5398C92.0988 46.7194 90.7541 47.7363 89.2057 48.5905C87.698 49.404 86.0884 49.8108 84.3769 49.8108C82.2173 49.8108 80.5669 49.2616 79.426 48.1634C78.3258 47.0652 77.7757 45.5805 77.7757 43.7094C77.7757 43.0993 77.8368 42.4891 77.959 41.879C78.0405 41.0655 78.0813 40.5164 78.0813 40.2316C78.0813 39.5808 77.8571 39.2554 77.4089 39.2554C76.7977 39.2554 75.9827 39.9469 74.964 41.3299C73.986 42.6722 73.008 44.4619 72.0301 46.6991C71.0521 48.9362 70.2575 51.2954 69.6463 53.7766C69.198 55.6884 68.6683 56.99 68.0571 57.6815C67.4866 58.3323 66.5697 58.6577 65.3065 58.6577Z"/>
<path d="M100.457 58.6577C96.4637 58.6577 93.3464 57.5391 91.1053 55.302C88.9048 53.0241 87.8046 50.0345 87.8046 46.333C87.8046 43.0383 88.4566 40.1503 89.7606 37.6691C91.0645 35.1879 92.7556 33.2761 94.8338 31.9338C96.912 30.5915 99.092 29.9204 101.374 29.9204C103.615 29.9204 105.347 30.5915 106.569 31.9338C107.833 33.2354 108.464 34.9235 108.464 36.9979C108.464 38.7063 108.077 40.1503 107.303 41.3299C106.569 42.5095 105.591 43.0993 104.369 43.0993C103.595 43.0993 102.963 42.9162 102.474 42.5502C102.026 42.1841 101.802 41.6756 101.802 41.0248C101.802 40.7401 101.843 40.4147 101.924 40.0486C102.006 39.6825 102.067 39.4181 102.107 39.2554C102.311 38.6453 102.413 38.0758 102.413 37.5471C102.413 37.0183 102.27 36.6115 101.985 36.3268C101.741 36.0421 101.374 35.8997 100.885 35.8997C99.9477 35.8997 99.0716 36.3268 98.2567 37.181C97.4417 37.9945 96.7897 39.1131 96.3007 40.5367C95.8117 41.9604 95.5672 43.5264 95.5672 45.2348C95.5672 49.9531 97.6251 52.3123 101.741 52.3123C103.411 52.3123 105.204 51.7632 107.12 50.6649C109.075 49.526 110.991 47.838 112.865 45.6008C113.354 45.0314 113.904 44.7466 114.515 44.7466C115.045 44.7466 115.453 44.9907 115.738 45.4788C116.064 45.9669 116.227 46.6381 116.227 47.4922C116.227 49.0379 115.84 50.2989 115.066 51.2751C113.15 53.6343 110.848 55.4647 108.159 56.7663C105.51 58.0272 102.943 58.6577 100.457 58.6577Z"/>
<path d="M134.452 44.7466C134.981 44.7466 135.389 44.9907 135.674 45.4788C136 45.9669 136.163 46.6381 136.163 47.4922C136.163 49.1193 135.776 50.3802 135.002 51.2751C133.249 53.4309 131.334 55.2003 129.256 56.5832C127.219 57.9662 124.896 58.6577 122.288 58.6577C118.702 58.6577 116.033 57.0307 114.281 53.7766C112.57 50.5226 111.714 46.3127 111.714 41.1468C111.714 36.1844 112.345 30.5305 113.609 24.1851C114.913 17.8397 116.807 12.3892 119.293 7.8335C121.819 3.27784 124.814 1 128.278 1C130.234 1 131.762 1.9152 132.862 3.74561C134.003 5.53533 134.574 8.11824 134.574 11.4943C134.574 16.3347 133.229 21.9479 130.54 28.334C127.85 34.7201 124.203 41.0452 119.599 47.3092C119.884 48.9769 120.353 50.1768 121.004 50.909C121.656 51.6005 122.512 51.9462 123.572 51.9462C125.242 51.9462 126.709 51.4785 127.973 50.5429C129.236 49.5667 130.845 47.9193 132.801 45.6008C133.29 45.0314 133.84 44.7466 134.452 44.7466ZM126.933 7.04033C125.996 7.04033 124.937 8.72837 123.755 12.1044C122.573 15.4805 121.534 19.6701 120.638 24.6732C119.741 29.6763 119.252 34.476 119.171 39.0724C122.064 34.3133 124.366 29.5543 126.078 24.7952C127.789 19.9955 128.645 15.6229 128.645 11.6774C128.645 8.58601 128.074 7.04033 126.933 7.04033Z"/>
<path d="M158.483 44.7466C159.013 44.7466 159.421 44.9907 159.706 45.4788C160.032 45.9669 160.195 46.6381 160.195 47.4922C160.195 49.1193 159.808 50.3802 159.034 51.2751C157.526 53.1055 155.387 54.7935 152.616 56.3392C149.885 57.8849 146.952 58.6577 143.814 58.6577C139.535 58.6577 136.214 57.4984 133.851 55.1799C131.487 52.8614 130.306 49.6887 130.306 45.6618C130.306 42.8552 130.897 40.252 132.078 37.8521C133.26 35.4116 134.89 33.4795 136.968 32.0558C139.087 30.6322 141.471 29.9204 144.12 29.9204C146.483 29.9204 148.378 30.6322 149.804 32.0558C151.23 33.4388 151.943 35.3302 151.943 37.7301C151.943 40.5367 150.925 42.9569 148.887 44.9907C146.89 46.9838 143.488 48.5702 138.68 49.7497C139.698 51.6208 141.634 52.5564 144.486 52.5564C146.32 52.5564 148.398 51.9259 150.721 50.6649C153.084 49.3633 155.122 47.6753 156.833 45.6008C157.322 45.0314 157.872 44.7466 158.483 44.7466ZM143.08 35.8997C141.573 35.8997 140.289 36.7742 139.23 38.5233C138.211 40.2723 137.702 42.3875 137.702 44.8687V44.9907C140.106 44.4212 142.001 43.567 143.386 42.4281C144.772 41.2892 145.464 39.9673 145.464 38.4623C145.464 37.6894 145.24 37.0793 144.792 36.6319C144.384 36.1437 143.814 35.8997 143.08 35.8997Z"/>
<path d="M166.587 60C164.468 60 162.838 59.5119 161.697 58.5357C160.597 57.5595 160.047 56.4612 160.047 55.241C160.047 54.1834 160.434 53.2682 161.208 52.4954C161.982 51.7225 163.123 51.3361 164.631 51.3361C165.161 51.3361 165.772 51.3971 166.465 51.5191C167.198 51.6005 167.748 51.6615 168.115 51.7022C168.074 50.6446 167.83 49.6481 167.382 48.7125C166.974 47.777 166.444 46.8821 165.792 46.0279C165.14 45.1331 164.529 44.3602 163.959 43.7094C162.696 46.1093 161.432 48.1024 160.169 49.6887C158.947 51.2751 157.602 52.7801 156.135 54.2037C155.402 54.9359 154.627 55.302 153.812 55.302C153.16 55.302 152.631 55.0782 152.223 54.6308C151.816 54.1427 151.612 53.5529 151.612 52.8614C151.612 52.0479 151.897 51.2954 152.468 50.6039L153.262 49.6277C155.503 46.8618 157.194 44.5839 158.335 42.7942C159.069 41.6146 159.802 40.2113 160.536 38.5843C161.31 36.9573 162.308 34.7404 163.531 31.9338C164.305 30.1441 165.915 29.2492 168.36 29.2492C169.501 29.2492 170.295 29.3509 170.743 29.5543C171.192 29.7577 171.416 30.0831 171.416 30.5305C171.416 30.7746 171.334 31.161 171.171 31.6898C171.008 32.2185 170.784 32.7473 170.499 33.2761C169.765 34.7404 169.399 35.981 169.399 36.9979C169.399 37.6081 169.602 38.2792 170.01 39.0114C170.458 39.7435 171.131 40.6587 172.027 41.757C173.331 43.4654 174.309 44.9297 174.961 46.15C175.654 47.3295 176 48.6312 176 50.0548C176 51.7632 175.593 53.3902 174.778 54.9359C174.003 56.4409 172.903 57.6612 171.477 58.5967C170.051 59.5322 168.421 60 166.587 60Z"/>
</mask>
<path d="M28.7769 58.6577C23.9278 58.6577 19.7103 57.7832 16.1244 56.0341C12.5385 54.2444 9.78798 51.7225 7.87279 48.4685C5.9576 45.2144 5 41.4316 5 37.12C5 31.1406 6.12059 25.8325 8.36177 21.1955C10.6437 16.5584 13.7202 12.979 17.5914 10.4571C21.4625 7.89452 25.7615 6.61324 30.4883 6.61324C34.8892 6.61324 38.2306 7.75215 40.5125 10.03C42.7945 12.2671 43.9354 15.2365 43.9354 18.938C43.9354 21.4192 43.4872 23.4123 42.5907 24.9173C41.735 26.4223 40.4922 27.1748 38.8622 27.1748C37.7212 27.1748 36.8248 26.9104 36.1728 26.3816C35.5208 25.8528 35.1948 25.08 35.1948 24.0631C35.1948 23.697 35.2763 23.0259 35.4393 22.0496C35.6838 20.8294 35.806 19.8532 35.806 19.121C35.806 15.4195 33.8297 13.5688 29.8771 13.5688C27.1877 13.5688 24.6205 14.4433 22.1756 16.1923C19.7307 17.9414 17.7544 20.5243 16.2467 23.9411C14.7389 27.3171 13.9851 31.344 13.9851 36.0217C13.9851 40.9028 15.3502 44.6856 18.0803 47.3702C20.8105 50.0141 24.8446 51.3361 30.1827 51.3361C32.8314 51.3361 35.5004 51.0107 38.1898 50.3599C40.92 49.6684 43.9354 48.6312 47.2361 47.2482C47.8473 47.0041 48.3567 46.8821 48.7641 46.8821C49.4161 46.8821 49.9051 47.1262 50.2311 47.6143C50.5571 48.1024 50.7201 48.7329 50.7201 49.5057C50.7201 51.9869 49.3754 53.8173 46.686 54.9969C43.7928 56.2578 40.7774 57.1934 37.6397 57.8035C34.5428 58.373 31.5886 58.6577 28.7769 58.6577Z" fill="#8553FF"/>
<path d="M53.9319 25.8935C52.2205 25.8935 50.9369 25.5071 50.0812 24.7342C49.2254 23.9207 48.7976 22.8021 48.7976 21.3785C48.7976 19.9548 49.3477 18.7753 50.4479 17.8397C51.5889 16.8635 52.9947 16.3754 54.6654 16.3754C56.1731 16.3754 57.3956 16.7415 58.3328 17.4736C59.27 18.2058 59.7386 19.243 59.7386 20.5853C59.7386 22.2123 59.2089 23.514 58.1494 24.4902C57.0899 25.4257 55.6841 25.8935 53.9319 25.8935ZM53.4429 58.6577C50.7943 58.6577 48.8587 57.7222 47.6362 55.8511C46.4545 53.98 45.8637 51.4988 45.8637 48.4074C45.8637 46.577 46.0878 44.2382 46.536 41.3909C47.025 38.5029 47.6362 35.8183 48.3697 33.3371C48.7364 32.0355 49.2254 31.1406 49.8367 30.6525C50.4479 30.1644 51.4259 29.9204 52.7706 29.9204C54.8488 29.9204 55.8878 30.6119 55.8878 31.9948C55.8878 33.0117 55.5007 35.3709 54.7265 39.0724C53.7485 43.5467 53.2596 46.577 53.2596 48.1634C53.2596 49.3837 53.4226 50.3192 53.7485 50.97C54.0745 51.6208 54.6246 51.9462 55.3989 51.9462C56.1323 51.9462 57.0492 51.4378 58.1494 50.4209C59.2496 49.404 60.7166 47.7973 62.5503 45.6008C63.0393 45.0314 63.5894 44.7466 64.2006 44.7466C64.7303 44.7466 65.1378 44.9907 65.4231 45.4788C65.749 45.9669 65.912 46.6381 65.912 47.4922C65.912 49.1193 65.5249 50.3802 64.7507 51.2751C60.7166 56.1968 56.9473 58.6577 53.4429 58.6577Z" fill="#8553FF"/>
<path d="M65.3065 58.6577C63.7581 58.6577 62.6579 57.8442 62.0059 56.2172C61.3947 54.5901 61.089 51.9869 61.089 48.4074C61.089 43.1196 61.8429 38.0962 63.3506 33.3371C63.7173 32.1575 64.3082 31.3033 65.1232 30.7746C65.9789 30.2051 67.1606 29.9204 68.6683 29.9204C69.4833 29.9204 70.0538 30.0221 70.3798 30.2254C70.7057 30.4288 70.8687 30.8152 70.8687 31.3847C70.8687 32.0355 70.5631 33.4998 69.9519 35.7777C69.5444 37.4047 69.2184 38.8283 68.9739 40.0486C68.7294 41.2689 68.5257 42.7739 68.3627 44.5636C69.7074 41.0655 71.2151 38.2182 72.8858 36.0217C74.5565 33.8252 76.1864 32.2592 77.7757 31.3237C79.4056 30.3881 80.8929 29.9204 82.2376 29.9204C84.8863 29.9204 86.2106 31.2423 86.2106 33.8862C86.2106 34.415 86.0273 35.6963 85.6605 37.7301C85.3345 39.3571 85.1715 40.374 85.1715 40.7808C85.1715 42.2044 85.6809 42.9162 86.6996 42.9162C87.8406 42.9162 89.3075 42.0214 91.1005 40.2316C91.6302 39.7029 92.1803 39.4385 92.7508 39.4385C93.2805 39.4385 93.688 39.6825 93.9733 40.1706C94.2993 40.6181 94.4623 41.2282 94.4623 42.001C94.4623 43.506 94.0548 44.6856 93.2398 45.5398C92.0988 46.7194 90.7541 47.7363 89.2057 48.5905C87.698 49.404 86.0884 49.8108 84.3769 49.8108C82.2173 49.8108 80.5669 49.2616 79.426 48.1634C78.3258 47.0652 77.7757 45.5805 77.7757 43.7094C77.7757 43.0993 77.8368 42.4891 77.959 41.879C78.0405 41.0655 78.0813 40.5164 78.0813 40.2316C78.0813 39.5808 77.8571 39.2554 77.4089 39.2554C76.7977 39.2554 75.9827 39.9469 74.964 41.3299C73.986 42.6722 73.008 44.4619 72.0301 46.6991C71.0521 48.9362 70.2575 51.2954 69.6463 53.7766C69.198 55.6884 68.6683 56.99 68.0571 57.6815C67.4866 58.3323 66.5697 58.6577 65.3065 58.6577Z" fill="#8553FF"/>
<path d="M100.457 58.6577C96.4637 58.6577 93.3464 57.5391 91.1053 55.302C88.9048 53.0241 87.8046 50.0345 87.8046 46.333C87.8046 43.0383 88.4566 40.1503 89.7606 37.6691C91.0645 35.1879 92.7556 33.2761 94.8338 31.9338C96.912 30.5915 99.092 29.9204 101.374 29.9204C103.615 29.9204 105.347 30.5915 106.569 31.9338C107.833 33.2354 108.464 34.9235 108.464 36.9979C108.464 38.7063 108.077 40.1503 107.303 41.3299C106.569 42.5095 105.591 43.0993 104.369 43.0993C103.595 43.0993 102.963 42.9162 102.474 42.5502C102.026 42.1841 101.802 41.6756 101.802 41.0248C101.802 40.7401 101.843 40.4147 101.924 40.0486C102.006 39.6825 102.067 39.4181 102.107 39.2554C102.311 38.6453 102.413 38.0758 102.413 37.5471C102.413 37.0183 102.27 36.6115 101.985 36.3268C101.741 36.0421 101.374 35.8997 100.885 35.8997C99.9477 35.8997 99.0716 36.3268 98.2567 37.181C97.4417 37.9945 96.7897 39.1131 96.3007 40.5367C95.8117 41.9604 95.5672 43.5264 95.5672 45.2348C95.5672 49.9531 97.6251 52.3123 101.741 52.3123C103.411 52.3123 105.204 51.7632 107.12 50.6649C109.075 49.526 110.991 47.838 112.865 45.6008C113.354 45.0314 113.904 44.7466 114.515 44.7466C115.045 44.7466 115.453 44.9907 115.738 45.4788C116.064 45.9669 116.227 46.6381 116.227 47.4922C116.227 49.0379 115.84 50.2989 115.066 51.2751C113.15 53.6343 110.848 55.4647 108.159 56.7663C105.51 58.0272 102.943 58.6577 100.457 58.6577Z" fill="#8553FF"/>
<path d="M134.452 44.7466C134.981 44.7466 135.389 44.9907 135.674 45.4788C136 45.9669 136.163 46.6381 136.163 47.4922C136.163 49.1193 135.776 50.3802 135.002 51.2751C133.249 53.4309 131.334 55.2003 129.256 56.5832C127.219 57.9662 124.896 58.6577 122.288 58.6577C118.702 58.6577 116.033 57.0307 114.281 53.7766C112.57 50.5226 111.714 46.3127 111.714 41.1468C111.714 36.1844 112.345 30.5305 113.609 24.1851C114.913 17.8397 116.807 12.3892 119.293 7.8335C121.819 3.27784 124.814 1 128.278 1C130.234 1 131.762 1.9152 132.862 3.74561C134.003 5.53533 134.574 8.11824 134.574 11.4943C134.574 16.3347 133.229 21.9479 130.54 28.334C127.85 34.7201 124.203 41.0452 119.599 47.3092C119.884 48.9769 120.353 50.1768 121.004 50.909C121.656 51.6005 122.512 51.9462 123.572 51.9462C125.242 51.9462 126.709 51.4785 127.973 50.5429C129.236 49.5667 130.845 47.9193 132.801 45.6008C133.29 45.0314 133.84 44.7466 134.452 44.7466ZM126.933 7.04033C125.996 7.04033 124.937 8.72837 123.755 12.1044C122.573 15.4805 121.534 19.6701 120.638 24.6732C119.741 29.6763 119.252 34.476 119.171 39.0724C122.064 34.3133 124.366 29.5543 126.078 24.7952C127.789 19.9955 128.645 15.6229 128.645 11.6774C128.645 8.58601 128.074 7.04033 126.933 7.04033Z" fill="#8553FF"/>
<path d="M158.483 44.7466C159.013 44.7466 159.421 44.9907 159.706 45.4788C160.032 45.9669 160.195 46.6381 160.195 47.4922C160.195 49.1193 159.808 50.3802 159.034 51.2751C157.526 53.1055 155.387 54.7935 152.616 56.3392C149.885 57.8849 146.952 58.6577 143.814 58.6577C139.535 58.6577 136.214 57.4984 133.851 55.1799C131.487 52.8614 130.306 49.6887 130.306 45.6618C130.306 42.8552 130.897 40.252 132.078 37.8521C133.26 35.4116 134.89 33.4795 136.968 32.0558C139.087 30.6322 141.471 29.9204 144.12 29.9204C146.483 29.9204 148.378 30.6322 149.804 32.0558C151.23 33.4388 151.943 35.3302 151.943 37.7301C151.943 40.5367 150.925 42.9569 148.887 44.9907C146.89 46.9838 143.488 48.5702 138.68 49.7497C139.698 51.6208 141.634 52.5564 144.486 52.5564C146.32 52.5564 148.398 51.9259 150.721 50.6649C153.084 49.3633 155.122 47.6753 156.833 45.6008C157.322 45.0314 157.872 44.7466 158.483 44.7466ZM143.08 35.8997C141.573 35.8997 140.289 36.7742 139.23 38.5233C138.211 40.2723 137.702 42.3875 137.702 44.8687V44.9907C140.106 44.4212 142.001 43.567 143.386 42.4281C144.772 41.2892 145.464 39.9673 145.464 38.4623C145.464 37.6894 145.24 37.0793 144.792 36.6319C144.384 36.1437 143.814 35.8997 143.08 35.8997Z" fill="#8553FF"/>
<path d="M166.587 60C164.468 60 162.838 59.5119 161.697 58.5357C160.597 57.5595 160.047 56.4612 160.047 55.241C160.047 54.1834 160.434 53.2682 161.208 52.4954C161.982 51.7225 163.123 51.3361 164.631 51.3361C165.161 51.3361 165.772 51.3971 166.465 51.5191C167.198 51.6005 167.748 51.6615 168.115 51.7022C168.074 50.6446 167.83 49.6481 167.382 48.7125C166.974 47.777 166.444 46.8821 165.792 46.0279C165.14 45.1331 164.529 44.3602 163.959 43.7094C162.696 46.1093 161.432 48.1024 160.169 49.6887C158.947 51.2751 157.602 52.7801 156.135 54.2037C155.402 54.9359 154.627 55.302 153.812 55.302C153.16 55.302 152.631 55.0782 152.223 54.6308C151.816 54.1427 151.612 53.5529 151.612 52.8614C151.612 52.0479 151.897 51.2954 152.468 50.6039L153.262 49.6277C155.503 46.8618 157.194 44.5839 158.335 42.7942C159.069 41.6146 159.802 40.2113 160.536 38.5843C161.31 36.9573 162.308 34.7404 163.531 31.9338C164.305 30.1441 165.915 29.2492 168.36 29.2492C169.501 29.2492 170.295 29.3509 170.743 29.5543C171.192 29.7577 171.416 30.0831 171.416 30.5305C171.416 30.7746 171.334 31.161 171.171 31.6898C171.008 32.2185 170.784 32.7473 170.499 33.2761C169.765 34.7404 169.399 35.981 169.399 36.9979C169.399 37.6081 169.602 38.2792 170.01 39.0114C170.458 39.7435 171.131 40.6587 172.027 41.757C173.331 43.4654 174.309 44.9297 174.961 46.15C175.654 47.3295 176 48.6312 176 50.0548C176 51.7632 175.593 53.3902 174.778 54.9359C174.003 56.4409 172.903 57.6612 171.477 58.5967C170.051 59.5322 168.421 60 166.587 60Z" fill="#8553FF"/>
<path d="M28.7769 58.6577C23.9278 58.6577 19.7103 57.7832 16.1244 56.0341C12.5385 54.2444 9.78798 51.7225 7.87279 48.4685C5.9576 45.2144 5 41.4316 5 37.12C5 31.1406 6.12059 25.8325 8.36177 21.1955C10.6437 16.5584 13.7202 12.979 17.5914 10.4571C21.4625 7.89452 25.7615 6.61324 30.4883 6.61324C34.8892 6.61324 38.2306 7.75215 40.5125 10.03C42.7945 12.2671 43.9354 15.2365 43.9354 18.938C43.9354 21.4192 43.4872 23.4123 42.5907 24.9173C41.735 26.4223 40.4922 27.1748 38.8622 27.1748C37.7212 27.1748 36.8248 26.9104 36.1728 26.3816C35.5208 25.8528 35.1948 25.08 35.1948 24.0631C35.1948 23.697 35.2763 23.0259 35.4393 22.0496C35.6838 20.8294 35.806 19.8532 35.806 19.121C35.806 15.4195 33.8297 13.5688 29.8771 13.5688C27.1877 13.5688 24.6205 14.4433 22.1756 16.1923C19.7307 17.9414 17.7544 20.5243 16.2467 23.9411C14.7389 27.3171 13.9851 31.344 13.9851 36.0217C13.9851 40.9028 15.3502 44.6856 18.0803 47.3702C20.8105 50.0141 24.8446 51.3361 30.1827 51.3361C32.8314 51.3361 35.5004 51.0107 38.1898 50.3599C40.92 49.6684 43.9354 48.6312 47.2361 47.2482C47.8473 47.0041 48.3567 46.8821 48.7641 46.8821C49.4161 46.8821 49.9051 47.1262 50.2311 47.6143C50.5571 48.1024 50.7201 48.7329 50.7201 49.5057C50.7201 51.9869 49.3754 53.8173 46.686 54.9969C43.7928 56.2578 40.7774 57.1934 37.6397 57.8035C34.5428 58.373 31.5886 58.6577 28.7769 58.6577Z" stroke="white" stroke-opacity="0.5" stroke-width="2" mask="url(#path-1-outside-1_2_6)"/>
<path d="M53.9319 25.8935C52.2205 25.8935 50.9369 25.5071 50.0812 24.7342C49.2254 23.9207 48.7976 22.8021 48.7976 21.3785C48.7976 19.9548 49.3477 18.7753 50.4479 17.8397C51.5889 16.8635 52.9947 16.3754 54.6654 16.3754C56.1731 16.3754 57.3956 16.7415 58.3328 17.4736C59.27 18.2058 59.7386 19.243 59.7386 20.5853C59.7386 22.2123 59.2089 23.514 58.1494 24.4902C57.0899 25.4257 55.6841 25.8935 53.9319 25.8935ZM53.4429 58.6577C50.7943 58.6577 48.8587 57.7222 47.6362 55.8511C46.4545 53.98 45.8637 51.4988 45.8637 48.4074C45.8637 46.577 46.0878 44.2382 46.536 41.3909C47.025 38.5029 47.6362 35.8183 48.3697 33.3371C48.7364 32.0355 49.2254 31.1406 49.8367 30.6525C50.4479 30.1644 51.4259 29.9204 52.7706 29.9204C54.8488 29.9204 55.8878 30.6119 55.8878 31.9948C55.8878 33.0117 55.5007 35.3709 54.7265 39.0724C53.7485 43.5467 53.2596 46.577 53.2596 48.1634C53.2596 49.3837 53.4226 50.3192 53.7485 50.97C54.0745 51.6208 54.6246 51.9462 55.3989 51.9462C56.1323 51.9462 57.0492 51.4378 58.1494 50.4209C59.2496 49.404 60.7166 47.7973 62.5503 45.6008C63.0393 45.0314 63.5894 44.7466 64.2006 44.7466C64.7303 44.7466 65.1378 44.9907 65.4231 45.4788C65.749 45.9669 65.912 46.6381 65.912 47.4922C65.912 49.1193 65.5249 50.3802 64.7507 51.2751C60.7166 56.1968 56.9473 58.6577 53.4429 58.6577Z" stroke="white" stroke-opacity="0.5" stroke-width="2" mask="url(#path-1-outside-1_2_6)"/>
<path d="M65.3065 58.6577C63.7581 58.6577 62.6579 57.8442 62.0059 56.2172C61.3947 54.5901 61.089 51.9869 61.089 48.4074C61.089 43.1196 61.8429 38.0962 63.3506 33.3371C63.7173 32.1575 64.3082 31.3033 65.1232 30.7746C65.9789 30.2051 67.1606 29.9204 68.6683 29.9204C69.4833 29.9204 70.0538 30.0221 70.3798 30.2254C70.7057 30.4288 70.8687 30.8152 70.8687 31.3847C70.8687 32.0355 70.5631 33.4998 69.9519 35.7777C69.5444 37.4047 69.2184 38.8283 68.9739 40.0486C68.7294 41.2689 68.5257 42.7739 68.3627 44.5636C69.7074 41.0655 71.2151 38.2182 72.8858 36.0217C74.5565 33.8252 76.1864 32.2592 77.7757 31.3237C79.4056 30.3881 80.8929 29.9204 82.2376 29.9204C84.8863 29.9204 86.2106 31.2423 86.2106 33.8862C86.2106 34.415 86.0273 35.6963 85.6605 37.7301C85.3345 39.3571 85.1715 40.374 85.1715 40.7808C85.1715 42.2044 85.6809 42.9162 86.6996 42.9162C87.8406 42.9162 89.3075 42.0214 91.1005 40.2316C91.6302 39.7029 92.1803 39.4385 92.7508 39.4385C93.2805 39.4385 93.688 39.6825 93.9733 40.1706C94.2993 40.6181 94.4623 41.2282 94.4623 42.001C94.4623 43.506 94.0548 44.6856 93.2398 45.5398C92.0988 46.7194 90.7541 47.7363 89.2057 48.5905C87.698 49.404 86.0884 49.8108 84.3769 49.8108C82.2173 49.8108 80.5669 49.2616 79.426 48.1634C78.3258 47.0652 77.7757 45.5805 77.7757 43.7094C77.7757 43.0993 77.8368 42.4891 77.959 41.879C78.0405 41.0655 78.0813 40.5164 78.0813 40.2316C78.0813 39.5808 77.8571 39.2554 77.4089 39.2554C76.7977 39.2554 75.9827 39.9469 74.964 41.3299C73.986 42.6722 73.008 44.4619 72.0301 46.6991C71.0521 48.9362 70.2575 51.2954 69.6463 53.7766C69.198 55.6884 68.6683 56.99 68.0571 57.6815C67.4866 58.3323 66.5697 58.6577 65.3065 58.6577Z" stroke="white" stroke-opacity="0.5" stroke-width="2" mask="url(#path-1-outside-1_2_6)"/>
<path d="M100.457 58.6577C96.4637 58.6577 93.3464 57.5391 91.1053 55.302C88.9048 53.0241 87.8046 50.0345 87.8046 46.333C87.8046 43.0383 88.4566 40.1503 89.7606 37.6691C91.0645 35.1879 92.7556 33.2761 94.8338 31.9338C96.912 30.5915 99.092 29.9204 101.374 29.9204C103.615 29.9204 105.347 30.5915 106.569 31.9338C107.833 33.2354 108.464 34.9235 108.464 36.9979C108.464 38.7063 108.077 40.1503 107.303 41.3299C106.569 42.5095 105.591 43.0993 104.369 43.0993C103.595 43.0993 102.963 42.9162 102.474 42.5502C102.026 42.1841 101.802 41.6756 101.802 41.0248C101.802 40.7401 101.843 40.4147 101.924 40.0486C102.006 39.6825 102.067 39.4181 102.107 39.2554C102.311 38.6453 102.413 38.0758 102.413 37.5471C102.413 37.0183 102.27 36.6115 101.985 36.3268C101.741 36.0421 101.374 35.8997 100.885 35.8997C99.9477 35.8997 99.0716 36.3268 98.2567 37.181C97.4417 37.9945 96.7897 39.1131 96.3007 40.5367C95.8117 41.9604 95.5672 43.5264 95.5672 45.2348C95.5672 49.9531 97.6251 52.3123 101.741 52.3123C103.411 52.3123 105.204 51.7632 107.12 50.6649C109.075 49.526 110.991 47.838 112.865 45.6008C113.354 45.0314 113.904 44.7466 114.515 44.7466C115.045 44.7466 115.453 44.9907 115.738 45.4788C116.064 45.9669 116.227 46.6381 116.227 47.4922C116.227 49.0379 115.84 50.2989 115.066 51.2751C113.15 53.6343 110.848 55.4647 108.159 56.7663C105.51 58.0272 102.943 58.6577 100.457 58.6577Z" stroke="white" stroke-opacity="0.5" stroke-width="2" mask="url(#path-1-outside-1_2_6)"/>
<path d="M134.452 44.7466C134.981 44.7466 135.389 44.9907 135.674 45.4788C136 45.9669 136.163 46.6381 136.163 47.4922C136.163 49.1193 135.776 50.3802 135.002 51.2751C133.249 53.4309 131.334 55.2003 129.256 56.5832C127.219 57.9662 124.896 58.6577 122.288 58.6577C118.702 58.6577 116.033 57.0307 114.281 53.7766C112.57 50.5226 111.714 46.3127 111.714 41.1468C111.714 36.1844 112.345 30.5305 113.609 24.1851C114.913 17.8397 116.807 12.3892 119.293 7.8335C121.819 3.27784 124.814 1 128.278 1C130.234 1 131.762 1.9152 132.862 3.74561C134.003 5.53533 134.574 8.11824 134.574 11.4943C134.574 16.3347 133.229 21.9479 130.54 28.334C127.85 34.7201 124.203 41.0452 119.599 47.3092C119.884 48.9769 120.353 50.1768 121.004 50.909C121.656 51.6005 122.512 51.9462 123.572 51.9462C125.242 51.9462 126.709 51.4785 127.973 50.5429C129.236 49.5667 130.845 47.9193 132.801 45.6008C133.29 45.0314 133.84 44.7466 134.452 44.7466ZM126.933 7.04033C125.996 7.04033 124.937 8.72837 123.755 12.1044C122.573 15.4805 121.534 19.6701 120.638 24.6732C119.741 29.6763 119.252 34.476 119.171 39.0724C122.064 34.3133 124.366 29.5543 126.078 24.7952C127.789 19.9955 128.645 15.6229 128.645 11.6774C128.645 8.58601 128.074 7.04033 126.933 7.04033Z" stroke="white" stroke-opacity="0.5" stroke-width="2" mask="url(#path-1-outside-1_2_6)"/>
<path d="M158.483 44.7466C159.013 44.7466 159.421 44.9907 159.706 45.4788C160.032 45.9669 160.195 46.6381 160.195 47.4922C160.195 49.1193 159.808 50.3802 159.034 51.2751C157.526 53.1055 155.387 54.7935 152.616 56.3392C149.885 57.8849 146.952 58.6577 143.814 58.6577C139.535 58.6577 136.214 57.4984 133.851 55.1799C131.487 52.8614 130.306 49.6887 130.306 45.6618C130.306 42.8552 130.897 40.252 132.078 37.8521C133.26 35.4116 134.89 33.4795 136.968 32.0558C139.087 30.6322 141.471 29.9204 144.12 29.9204C146.483 29.9204 148.378 30.6322 149.804 32.0558C151.23 33.4388 151.943 35.3302 151.943 37.7301C151.943 40.5367 150.925 42.9569 148.887 44.9907C146.89 46.9838 143.488 48.5702 138.68 49.7497C139.698 51.6208 141.634 52.5564 144.486 52.5564C146.32 52.5564 148.398 51.9259 150.721 50.6649C153.084 49.3633 155.122 47.6753 156.833 45.6008C157.322 45.0314 157.872 44.7466 158.483 44.7466ZM143.08 35.8997C141.573 35.8997 140.289 36.7742 139.23 38.5233C138.211 40.2723 137.702 42.3875 137.702 44.8687V44.9907C140.106 44.4212 142.001 43.567 143.386 42.4281C144.772 41.2892 145.464 39.9673 145.464 38.4623C145.464 37.6894 145.24 37.0793 144.792 36.6319C144.384 36.1437 143.814 35.8997 143.08 35.8997Z" stroke="white" stroke-opacity="0.5" stroke-width="2" mask="url(#path-1-outside-1_2_6)"/>
<path d="M166.587 60C164.468 60 162.838 59.5119 161.697 58.5357C160.597 57.5595 160.047 56.4612 160.047 55.241C160.047 54.1834 160.434 53.2682 161.208 52.4954C161.982 51.7225 163.123 51.3361 164.631 51.3361C165.161 51.3361 165.772 51.3971 166.465 51.5191C167.198 51.6005 167.748 51.6615 168.115 51.7022C168.074 50.6446 167.83 49.6481 167.382 48.7125C166.974 47.777 166.444 46.8821 165.792 46.0279C165.14 45.1331 164.529 44.3602 163.959 43.7094C162.696 46.1093 161.432 48.1024 160.169 49.6887C158.947 51.2751 157.602 52.7801 156.135 54.2037C155.402 54.9359 154.627 55.302 153.812 55.302C153.16 55.302 152.631 55.0782 152.223 54.6308C151.816 54.1427 151.612 53.5529 151.612 52.8614C151.612 52.0479 151.897 51.2954 152.468 50.6039L153.262 49.6277C155.503 46.8618 157.194 44.5839 158.335 42.7942C159.069 41.6146 159.802 40.2113 160.536 38.5843C161.31 36.9573 162.308 34.7404 163.531 31.9338C164.305 30.1441 165.915 29.2492 168.36 29.2492C169.501 29.2492 170.295 29.3509 170.743 29.5543C171.192 29.7577 171.416 30.0831 171.416 30.5305C171.416 30.7746 171.334 31.161 171.171 31.6898C171.008 32.2185 170.784 32.7473 170.499 33.2761C169.765 34.7404 169.399 35.981 169.399 36.9979C169.399 37.6081 169.602 38.2792 170.01 39.0114C170.458 39.7435 171.131 40.6587 172.027 41.757C173.331 43.4654 174.309 44.9297 174.961 46.15C175.654 47.3295 176 48.6312 176 50.0548C176 51.7632 175.593 53.3902 174.778 54.9359C174.003 56.4409 172.903 57.6612 171.477 58.5967C170.051 59.5322 168.421 60 166.587 60Z" stroke="white" stroke-opacity="0.5" stroke-width="2" mask="url(#path-1-outside-1_2_6)"/>
</g>
<defs>
<filter id="filter0_d_2_6" x="0" y="0" width="181" height="69" filterUnits="userSpaceOnUse" color-interpolation-filters="sRGB">
<feFlood flood-opacity="0" result="BackgroundImageFix"/>
<feColorMatrix in="SourceAlpha" type="matrix" values="0 0 0 0 0 0 0 0 0 0 0 0 0 0 0 0 0 0 127 0" result="hardAlpha"/>
<feOffset dy="4"/>
<feGaussianBlur stdDeviation="2"/>
<feComposite in2="hardAlpha" operator="out"/>
<feColorMatrix type="matrix" values="0 0 0 0 0 0 0 0 0 0 0 0 0 0 0 0 0 0 0.25 0"/>
<feBlend mode="normal" in2="BackgroundImageFix" result="effect1_dropShadow_2_6"/>
<feBlend mode="normal" in="SourceGraphic" in2="effect1_dropShadow_2_6" result="shape"/>
</filter>
</defs>
</svg>
