<svg width="215" height="79" viewBox="0 0 215 79" fill="none" xmlns="http://www.w3.org/2000/svg">
<mask id="path-1-outside-1_217_7088" maskUnits="userSpaceOnUse" x="0" y="-0.000427246" width="215" height="79" fill="black">
<rect fill="white" y="-0.000427246" width="215" height="79"/>
<path d="M32.0606 73.7937C26.134 73.7937 20.9792 72.7199 16.5965 70.5724C12.2137 68.3749 8.85197 65.2784 6.51118 61.283C4.17039 57.2875 3 52.6429 3 47.3489C3 40.0073 4.36961 33.4897 7.10883 27.7962C9.89786 22.1027 13.6581 17.7078 18.3894 14.6113C23.1208 11.4649 28.3751 9.8917 34.1524 9.8917C39.5312 9.8917 43.6152 11.2901 46.4042 14.0869C49.1932 16.8338 50.5877 20.4796 50.5877 25.0244C50.5877 28.0709 50.0399 30.5181 48.9442 32.366C47.8983 34.2139 46.3793 35.1379 44.3871 35.1379C42.9926 35.1379 41.8969 34.8132 41.1001 34.164C40.3032 33.5147 39.9048 32.5658 39.9048 31.3172C39.9048 30.8677 40.0044 30.0437 40.2036 28.845C40.5024 27.3468 40.6518 26.1481 40.6518 25.2492C40.6518 20.7043 38.2363 18.4319 33.4053 18.4319C30.1183 18.4319 26.9806 19.5057 23.9924 21.6533C21.0042 23.8008 18.5887 26.9722 16.7459 31.1674C14.9032 35.3127 13.9818 40.257 13.9818 46.0004C13.9818 51.9936 15.6502 56.6383 18.9871 59.9345C22.324 63.1808 27.2546 64.804 33.7789 64.804C37.0161 64.804 40.2783 64.4044 43.5654 63.6053C46.9022 62.7563 50.5877 61.4828 54.6219 59.7847C55.3689 59.485 55.9915 59.3352 56.4895 59.3352C57.2864 59.3352 57.884 59.6349 58.2825 60.2342C58.6809 60.8335 58.8801 61.6076 58.8801 62.5565C58.8801 65.603 57.2366 67.8505 53.9495 69.2988C50.4134 70.8471 46.7279 71.9957 42.893 72.7449C39.1079 73.4441 35.4971 73.7937 32.0606 73.7937Z"/>
<path d="M62.8057 33.5647C60.7139 33.5647 59.1451 33.0902 58.0992 32.1413C57.0533 31.1424 56.5304 29.769 56.5304 28.021C56.5304 26.273 57.2027 24.8246 58.5474 23.6759C59.9419 22.4773 61.6602 21.878 63.7021 21.878C65.5449 21.878 67.039 22.3275 68.1845 23.2265C69.33 24.1254 69.9027 25.399 69.9027 27.0471C69.9027 29.0448 69.2553 30.643 67.9604 31.8416C66.6655 32.9903 64.9472 33.5647 62.8057 33.5647ZM62.208 73.7937C58.9708 73.7937 56.6051 72.645 55.1109 70.3476C53.6666 68.0503 52.9445 65.0037 52.9445 61.2081C52.9445 58.9606 53.2184 56.0889 53.7662 52.5929C54.3639 49.047 55.111 45.7507 56.0074 42.7042C56.4557 41.106 57.0533 40.0073 57.8004 39.408C58.5474 38.8087 59.7427 38.509 61.3863 38.509C63.9263 38.509 65.1963 39.358 65.1963 41.0561C65.1963 42.3047 64.7231 45.2014 63.7768 49.7462C62.5816 55.2399 61.9839 58.9606 61.9839 60.9084C61.9839 62.4067 62.1831 63.5554 62.5816 64.3545C62.98 65.1536 63.6523 65.5531 64.5986 65.5531C65.4951 65.5531 66.6157 64.9288 67.9604 63.6802C69.3051 62.4317 71.098 60.4589 73.3392 57.762C73.9369 57.0628 74.6092 56.7132 75.3563 56.7132C76.0037 56.7132 76.5018 57.0129 76.8504 57.6122C77.2488 58.2115 77.4481 59.0355 77.4481 60.0844C77.4481 62.0821 76.9749 63.6303 76.0286 64.729C71.098 70.7721 66.4912 73.7937 62.208 73.7937Z"/>
<path d="M76.708 73.7937C74.8154 73.7937 73.4707 72.7948 72.6739 70.7971C71.9268 68.7994 71.5533 65.603 71.5533 61.2081C71.5533 54.7155 72.4747 48.5475 74.3174 42.7042C74.7656 41.2559 75.4878 40.2071 76.4839 39.5578C77.5298 38.8586 78.9741 38.509 80.8168 38.509C81.8129 38.509 82.5102 38.6339 82.9086 38.8836C83.307 39.1333 83.5062 39.6077 83.5062 40.3069C83.5062 41.106 83.1327 42.904 82.3857 45.7008C81.8876 47.6985 81.4892 49.4465 81.1904 50.9448C80.8915 52.4431 80.6425 54.291 80.4433 56.4885C82.0868 52.1934 83.9296 48.6974 85.9715 46.0004C88.0135 43.3035 90.0057 41.3807 91.948 40.232C93.9402 39.0833 95.758 38.509 97.4016 38.509C100.639 38.509 102.257 40.1321 102.257 43.3784C102.257 44.0277 102.033 45.6009 101.585 48.098C101.187 50.0958 100.987 51.3443 100.987 51.8438C100.987 53.5918 101.61 54.4658 102.855 54.4658C104.25 54.4658 106.043 53.367 108.234 51.1695C108.881 50.5203 109.554 50.1956 110.251 50.1956C110.898 50.1956 111.396 50.4953 111.745 51.0946C112.144 51.644 112.343 52.3931 112.343 53.3421C112.343 55.1899 111.845 56.6383 110.849 57.6871C109.454 59.1354 107.811 60.384 105.918 61.4328C104.075 62.4317 102.108 62.9311 100.016 62.9311C97.3767 62.9311 95.3596 62.2569 93.9651 60.9084C92.6204 59.5599 91.948 57.737 91.948 55.4397C91.948 54.6905 92.0227 53.9414 92.1721 53.1922C92.2717 52.1934 92.3215 51.5191 92.3215 51.1695C92.3215 50.3704 92.0476 49.9709 91.4998 49.9709C90.7527 49.9709 89.7566 50.8199 88.5115 52.518C87.3162 54.1661 86.1209 56.3636 84.9257 59.1105C83.7304 61.8573 82.7592 64.754 82.0121 67.8005C81.4643 70.1479 80.8168 71.746 80.0698 72.5951C79.3725 73.3941 78.2519 73.7937 76.708 73.7937Z"/>
<path d="M119.67 73.7937C114.789 73.7937 110.979 72.4203 108.24 69.6734C105.55 66.8766 104.206 63.2058 104.206 58.661C104.206 54.6156 105.003 51.0696 106.596 48.0231C108.19 44.9766 110.257 42.6293 112.797 40.9812C115.337 39.3331 118.001 38.509 120.79 38.509C123.53 38.509 125.646 39.3331 127.14 40.9812C128.684 42.5794 129.456 44.652 129.456 47.1991C129.456 49.2967 128.983 51.0697 128.037 52.518C127.14 53.9663 125.945 54.6905 124.451 54.6905C123.505 54.6905 122.733 54.4658 122.135 54.0163C121.587 53.5668 121.313 52.9425 121.313 52.1434C121.313 51.7938 121.363 51.3943 121.463 50.9448C121.562 50.4953 121.637 50.1707 121.687 49.9709C121.936 49.2218 122.06 48.5226 122.06 47.8733C122.06 47.224 121.886 46.7246 121.537 46.375C121.239 46.0254 120.79 45.8506 120.193 45.8506C119.047 45.8506 117.976 46.375 116.98 47.4238C115.984 48.4227 115.187 49.7961 114.59 51.5441C113.992 53.2921 113.693 55.2149 113.693 57.3125C113.693 63.1059 116.208 66.0026 121.239 66.0026C123.281 66.0026 125.472 65.3284 127.813 63.9799C130.203 62.5815 132.544 60.5089 134.835 57.762C135.433 57.0628 136.105 56.7132 136.852 56.7132C137.5 56.7132 137.998 57.0129 138.346 57.6122C138.745 58.2115 138.944 59.0355 138.944 60.0844C138.944 61.9822 138.471 63.5304 137.525 64.729C135.184 67.6257 132.37 69.8732 129.083 71.4713C125.845 73.0196 122.708 73.7937 119.67 73.7937Z"/>
<path d="M161.219 56.7132C161.866 56.7132 162.364 57.0129 162.713 57.6122C163.111 58.2115 163.31 59.0355 163.31 60.0844C163.31 62.0821 162.837 63.6303 161.891 64.729C159.749 67.376 157.409 69.5485 154.869 71.2466C152.378 72.9447 149.54 73.7937 146.352 73.7937C141.969 73.7937 138.707 71.796 136.566 67.8005C134.474 63.8051 133.428 58.636 133.428 52.2933C133.428 46.2002 134.2 39.2581 135.744 31.467C137.338 23.6759 139.653 16.9836 142.691 11.39C145.779 5.79638 149.44 2.99957 153.673 2.99957C156.064 2.99957 157.932 4.12329 159.276 6.37072C160.671 8.56821 161.368 11.7396 161.368 15.8849C161.368 21.8281 159.724 28.7202 156.437 36.5612C153.15 44.4023 148.693 52.1684 143.065 59.8596C143.414 61.9073 143.986 63.3806 144.783 64.2796C145.58 65.1286 146.626 65.5531 147.921 65.5531C149.963 65.5531 151.756 64.9788 153.3 63.8301C154.844 62.6314 156.811 60.6088 159.202 57.762C159.799 57.0628 160.472 56.7132 161.219 56.7132ZM152.03 10.4161C150.884 10.4161 149.589 12.4887 148.145 16.634C146.701 20.7793 145.431 25.9234 144.335 32.0664C143.239 38.2093 142.642 44.1026 142.542 49.7462C146.078 43.9028 148.892 38.0595 150.984 32.2162C153.076 26.3229 154.122 20.9541 154.122 16.1096C154.122 12.3139 153.424 10.4161 152.03 10.4161Z"/>
<path d="M190.591 56.7132C191.238 56.7132 191.736 57.0129 192.085 57.6122C192.483 58.2115 192.683 59.0355 192.683 60.0844C192.683 62.0821 192.21 63.6303 191.263 64.729C189.421 66.9765 186.806 69.0491 183.419 70.9469C180.082 72.8448 176.496 73.7937 172.661 73.7937C167.432 73.7937 163.373 72.3703 160.484 69.5236C157.596 66.6768 156.151 62.7813 156.151 57.8369C156.151 54.3909 156.874 51.1945 158.318 48.2479C159.762 45.2513 161.754 42.879 164.294 41.131C166.884 39.383 169.798 38.509 173.035 38.509C175.924 38.509 178.24 39.383 179.983 41.131C181.726 42.8291 182.597 45.1514 182.597 48.098C182.597 51.5441 181.352 54.5157 178.862 57.0129C176.422 59.4601 172.263 61.4078 166.386 62.8562C167.631 65.1536 169.997 66.3022 173.483 66.3022C175.724 66.3022 178.264 65.5281 181.103 63.9799C183.992 62.3817 186.482 60.3091 188.574 57.762C189.171 57.0628 189.844 56.7132 190.591 56.7132ZM171.765 45.8506C169.922 45.8506 168.353 46.9244 167.059 49.0719C165.813 51.2195 165.191 53.8165 165.191 56.863V57.0129C168.129 56.3137 170.445 55.2649 172.139 53.8665C173.832 52.4681 174.679 50.8449 174.679 48.997C174.679 48.0481 174.405 47.299 173.857 46.7496C173.359 46.1503 172.661 45.8506 171.765 45.8506Z"/>
<path d="M200.495 75.4418C197.905 75.4418 195.913 74.8425 194.519 73.6439C193.174 72.4452 192.502 71.0968 192.502 69.5985C192.502 68.3 192.975 67.1762 193.921 66.2273C194.867 65.2784 196.262 64.804 198.105 64.804C198.752 64.804 199.499 64.8789 200.346 65.0287C201.242 65.1286 201.915 65.2035 202.363 65.2534C202.313 63.9549 202.014 62.7313 201.466 61.5826C200.968 60.434 200.321 59.3352 199.524 58.2864C198.727 57.1877 197.98 56.2387 197.283 55.4397C195.739 58.3863 194.195 60.8335 192.651 62.7813C191.157 64.729 189.513 66.5769 187.721 68.3249C186.824 69.2239 185.878 69.6734 184.882 69.6734C184.085 69.6734 183.437 69.3987 182.939 68.8493C182.441 68.25 182.192 67.5258 182.192 66.6768C182.192 65.678 182.541 64.754 183.238 63.905L184.209 62.7064C186.949 59.3102 189.015 56.5134 190.41 54.3159C191.306 52.8676 192.203 51.1446 193.099 49.1469C194.046 47.1491 195.266 44.4272 196.76 40.9812C197.706 38.7837 199.674 37.6849 202.662 37.6849C204.056 37.6849 205.027 37.8098 205.575 38.0595C206.123 38.3092 206.397 38.7088 206.397 39.2581C206.397 39.5578 206.297 40.0323 206.098 40.6815C205.899 41.3308 205.625 41.98 205.276 42.6293C204.38 44.4272 203.932 45.9505 203.932 47.1991C203.932 47.9482 204.181 48.7723 204.679 49.6712C205.227 50.5702 206.048 51.6939 207.144 53.0424C208.738 55.14 209.933 56.9379 210.73 58.4362C211.577 59.8846 212 61.4827 212 63.2308C212 65.3284 211.502 67.3261 210.506 69.2239C209.56 71.0718 208.215 72.5701 206.472 73.7188C204.729 74.8675 202.736 75.4418 200.495 75.4418Z"/>
</mask>
<path d="M32.0606 73.7937C26.134 73.7937 20.9792 72.7199 16.5965 70.5724C12.2137 68.3749 8.85197 65.2784 6.51118 61.283C4.17039 57.2875 3 52.6429 3 47.3489C3 40.0073 4.36961 33.4897 7.10883 27.7962C9.89786 22.1027 13.6581 17.7078 18.3894 14.6113C23.1208 11.4649 28.3751 9.8917 34.1524 9.8917C39.5312 9.8917 43.6152 11.2901 46.4042 14.0869C49.1932 16.8338 50.5877 20.4796 50.5877 25.0244C50.5877 28.0709 50.0399 30.5181 48.9442 32.366C47.8983 34.2139 46.3793 35.1379 44.3871 35.1379C42.9926 35.1379 41.8969 34.8132 41.1001 34.164C40.3032 33.5147 39.9048 32.5658 39.9048 31.3172C39.9048 30.8677 40.0044 30.0437 40.2036 28.845C40.5024 27.3468 40.6518 26.1481 40.6518 25.2492C40.6518 20.7043 38.2363 18.4319 33.4053 18.4319C30.1183 18.4319 26.9806 19.5057 23.9924 21.6533C21.0042 23.8008 18.5887 26.9722 16.7459 31.1674C14.9032 35.3127 13.9818 40.257 13.9818 46.0004C13.9818 51.9936 15.6502 56.6383 18.9871 59.9345C22.324 63.1808 27.2546 64.804 33.7789 64.804C37.0161 64.804 40.2783 64.4044 43.5654 63.6053C46.9022 62.7563 50.5877 61.4828 54.6219 59.7847C55.3689 59.485 55.9915 59.3352 56.4895 59.3352C57.2864 59.3352 57.884 59.6349 58.2825 60.2342C58.6809 60.8335 58.8801 61.6076 58.8801 62.5565C58.8801 65.603 57.2366 67.8505 53.9495 69.2988C50.4134 70.8471 46.7279 71.9957 42.893 72.7449C39.1079 73.4441 35.4971 73.7937 32.0606 73.7937Z" fill="white"/>
<path d="M62.8057 33.5647C60.7139 33.5647 59.1451 33.0902 58.0992 32.1413C57.0533 31.1424 56.5304 29.769 56.5304 28.021C56.5304 26.273 57.2027 24.8246 58.5474 23.6759C59.9419 22.4773 61.6602 21.878 63.7021 21.878C65.5449 21.878 67.039 22.3275 68.1845 23.2265C69.33 24.1254 69.9027 25.399 69.9027 27.0471C69.9027 29.0448 69.2553 30.643 67.9604 31.8416C66.6655 32.9903 64.9472 33.5647 62.8057 33.5647ZM62.208 73.7937C58.9708 73.7937 56.6051 72.645 55.1109 70.3476C53.6666 68.0503 52.9445 65.0037 52.9445 61.2081C52.9445 58.9606 53.2184 56.0889 53.7662 52.5929C54.3639 49.047 55.111 45.7507 56.0074 42.7042C56.4557 41.106 57.0533 40.0073 57.8004 39.408C58.5474 38.8087 59.7427 38.509 61.3863 38.509C63.9263 38.509 65.1963 39.358 65.1963 41.0561C65.1963 42.3047 64.7231 45.2014 63.7768 49.7462C62.5816 55.2399 61.9839 58.9606 61.9839 60.9084C61.9839 62.4067 62.1831 63.5554 62.5816 64.3545C62.98 65.1536 63.6523 65.5531 64.5986 65.5531C65.4951 65.5531 66.6157 64.9288 67.9604 63.6802C69.3051 62.4317 71.098 60.4589 73.3392 57.762C73.9369 57.0628 74.6092 56.7132 75.3563 56.7132C76.0037 56.7132 76.5018 57.0129 76.8504 57.6122C77.2488 58.2115 77.4481 59.0355 77.4481 60.0844C77.4481 62.0821 76.9749 63.6303 76.0286 64.729C71.098 70.7721 66.4912 73.7937 62.208 73.7937Z" fill="white"/>
<path d="M76.708 73.7937C74.8154 73.7937 73.4707 72.7948 72.6739 70.7971C71.9268 68.7994 71.5533 65.603 71.5533 61.2081C71.5533 54.7155 72.4747 48.5475 74.3174 42.7042C74.7656 41.2559 75.4878 40.2071 76.4839 39.5578C77.5298 38.8586 78.9741 38.509 80.8168 38.509C81.8129 38.509 82.5102 38.6339 82.9086 38.8836C83.307 39.1333 83.5062 39.6077 83.5062 40.3069C83.5062 41.106 83.1327 42.904 82.3857 45.7008C81.8876 47.6985 81.4892 49.4465 81.1904 50.9448C80.8915 52.4431 80.6425 54.291 80.4433 56.4885C82.0868 52.1934 83.9296 48.6974 85.9715 46.0004C88.0135 43.3035 90.0057 41.3807 91.948 40.232C93.9402 39.0833 95.758 38.509 97.4016 38.509C100.639 38.509 102.257 40.1321 102.257 43.3784C102.257 44.0277 102.033 45.6009 101.585 48.098C101.187 50.0958 100.987 51.3443 100.987 51.8438C100.987 53.5918 101.61 54.4658 102.855 54.4658C104.25 54.4658 106.043 53.367 108.234 51.1695C108.881 50.5203 109.554 50.1956 110.251 50.1956C110.898 50.1956 111.396 50.4953 111.745 51.0946C112.144 51.644 112.343 52.3931 112.343 53.3421C112.343 55.1899 111.845 56.6383 110.849 57.6871C109.454 59.1354 107.811 60.384 105.918 61.4328C104.075 62.4317 102.108 62.9311 100.016 62.9311C97.3767 62.9311 95.3596 62.2569 93.9651 60.9084C92.6204 59.5599 91.948 57.737 91.948 55.4397C91.948 54.6905 92.0227 53.9414 92.1721 53.1922C92.2717 52.1934 92.3215 51.5191 92.3215 51.1695C92.3215 50.3704 92.0476 49.9709 91.4998 49.9709C90.7527 49.9709 89.7566 50.8199 88.5115 52.518C87.3162 54.1661 86.1209 56.3636 84.9257 59.1105C83.7304 61.8573 82.7592 64.754 82.0121 67.8005C81.4643 70.1479 80.8168 71.746 80.0698 72.5951C79.3725 73.3941 78.2519 73.7937 76.708 73.7937Z" fill="white"/>
<path d="M119.67 73.7937C114.789 73.7937 110.979 72.4203 108.24 69.6734C105.55 66.8766 104.206 63.2058 104.206 58.661C104.206 54.6156 105.003 51.0696 106.596 48.0231C108.19 44.9766 110.257 42.6293 112.797 40.9812C115.337 39.3331 118.001 38.509 120.79 38.509C123.53 38.509 125.646 39.3331 127.14 40.9812C128.684 42.5794 129.456 44.652 129.456 47.1991C129.456 49.2967 128.983 51.0697 128.037 52.518C127.14 53.9663 125.945 54.6905 124.451 54.6905C123.505 54.6905 122.733 54.4658 122.135 54.0163C121.587 53.5668 121.313 52.9425 121.313 52.1434C121.313 51.7938 121.363 51.3943 121.463 50.9448C121.562 50.4953 121.637 50.1707 121.687 49.9709C121.936 49.2218 122.06 48.5226 122.06 47.8733C122.06 47.224 121.886 46.7246 121.537 46.375C121.239 46.0254 120.79 45.8506 120.193 45.8506C119.047 45.8506 117.976 46.375 116.98 47.4238C115.984 48.4227 115.187 49.7961 114.59 51.5441C113.992 53.2921 113.693 55.2149 113.693 57.3125C113.693 63.1059 116.208 66.0026 121.239 66.0026C123.281 66.0026 125.472 65.3284 127.813 63.9799C130.203 62.5815 132.544 60.5089 134.835 57.762C135.433 57.0628 136.105 56.7132 136.852 56.7132C137.5 56.7132 137.998 57.0129 138.346 57.6122C138.745 58.2115 138.944 59.0355 138.944 60.0844C138.944 61.9822 138.471 63.5304 137.525 64.729C135.184 67.6257 132.37 69.8732 129.083 71.4713C125.845 73.0196 122.708 73.7937 119.67 73.7937Z" fill="white"/>
<path d="M161.219 56.7132C161.866 56.7132 162.364 57.0129 162.713 57.6122C163.111 58.2115 163.31 59.0355 163.31 60.0844C163.31 62.0821 162.837 63.6303 161.891 64.729C159.749 67.376 157.409 69.5485 154.869 71.2466C152.378 72.9447 149.54 73.7937 146.352 73.7937C141.969 73.7937 138.707 71.796 136.566 67.8005C134.474 63.8051 133.428 58.636 133.428 52.2933C133.428 46.2002 134.2 39.2581 135.744 31.467C137.338 23.6759 139.653 16.9836 142.691 11.39C145.779 5.79638 149.44 2.99957 153.673 2.99957C156.064 2.99957 157.932 4.12329 159.276 6.37072C160.671 8.56821 161.368 11.7396 161.368 15.8849C161.368 21.8281 159.724 28.7202 156.437 36.5612C153.15 44.4023 148.693 52.1684 143.065 59.8596C143.414 61.9073 143.986 63.3806 144.783 64.2796C145.58 65.1286 146.626 65.5531 147.921 65.5531C149.963 65.5531 151.756 64.9788 153.3 63.8301C154.844 62.6314 156.811 60.6088 159.202 57.762C159.799 57.0628 160.472 56.7132 161.219 56.7132ZM152.03 10.4161C150.884 10.4161 149.589 12.4887 148.145 16.634C146.701 20.7793 145.431 25.9234 144.335 32.0664C143.239 38.2093 142.642 44.1026 142.542 49.7462C146.078 43.9028 148.892 38.0595 150.984 32.2162C153.076 26.3229 154.122 20.9541 154.122 16.1096C154.122 12.3139 153.424 10.4161 152.03 10.4161Z" fill="white"/>
<path d="M190.591 56.7132C191.238 56.7132 191.736 57.0129 192.085 57.6122C192.483 58.2115 192.683 59.0355 192.683 60.0844C192.683 62.0821 192.21 63.6303 191.263 64.729C189.421 66.9765 186.806 69.0491 183.419 70.9469C180.082 72.8448 176.496 73.7937 172.661 73.7937C167.432 73.7937 163.373 72.3703 160.484 69.5236C157.596 66.6768 156.151 62.7813 156.151 57.8369C156.151 54.3909 156.874 51.1945 158.318 48.2479C159.762 45.2513 161.754 42.879 164.294 41.131C166.884 39.383 169.798 38.509 173.035 38.509C175.924 38.509 178.24 39.383 179.983 41.131C181.726 42.8291 182.597 45.1514 182.597 48.098C182.597 51.5441 181.352 54.5157 178.862 57.0129C176.422 59.4601 172.263 61.4078 166.386 62.8562C167.631 65.1536 169.997 66.3022 173.483 66.3022C175.724 66.3022 178.264 65.5281 181.103 63.9799C183.992 62.3817 186.482 60.3091 188.574 57.762C189.171 57.0628 189.844 56.7132 190.591 56.7132ZM171.765 45.8506C169.922 45.8506 168.353 46.9244 167.059 49.0719C165.813 51.2195 165.191 53.8165 165.191 56.863V57.0129C168.129 56.3137 170.445 55.2649 172.139 53.8665C173.832 52.4681 174.679 50.8449 174.679 48.997C174.679 48.0481 174.405 47.299 173.857 46.7496C173.359 46.1503 172.661 45.8506 171.765 45.8506Z" fill="white"/>
<path d="M200.495 75.4418C197.905 75.4418 195.913 74.8425 194.519 73.6439C193.174 72.4452 192.502 71.0968 192.502 69.5985C192.502 68.3 192.975 67.1762 193.921 66.2273C194.867 65.2784 196.262 64.804 198.105 64.804C198.752 64.804 199.499 64.8789 200.346 65.0287C201.242 65.1286 201.915 65.2035 202.363 65.2534C202.313 63.9549 202.014 62.7313 201.466 61.5826C200.968 60.434 200.321 59.3352 199.524 58.2864C198.727 57.1877 197.98 56.2387 197.283 55.4397C195.739 58.3863 194.195 60.8335 192.651 62.7813C191.157 64.729 189.513 66.5769 187.721 68.3249C186.824 69.2239 185.878 69.6734 184.882 69.6734C184.085 69.6734 183.437 69.3987 182.939 68.8493C182.441 68.25 182.192 67.5258 182.192 66.6768C182.192 65.678 182.541 64.754 183.238 63.905L184.209 62.7064C186.949 59.3102 189.015 56.5134 190.41 54.3159C191.306 52.8676 192.203 51.1446 193.099 49.1469C194.046 47.1491 195.266 44.4272 196.76 40.9812C197.706 38.7837 199.674 37.6849 202.662 37.6849C204.056 37.6849 205.027 37.8098 205.575 38.0595C206.123 38.3092 206.397 38.7088 206.397 39.2581C206.397 39.5578 206.297 40.0323 206.098 40.6815C205.899 41.3308 205.625 41.98 205.276 42.6293C204.38 44.4272 203.932 45.9505 203.932 47.1991C203.932 47.9482 204.181 48.7723 204.679 49.6712C205.227 50.5702 206.048 51.6939 207.144 53.0424C208.738 55.14 209.933 56.9379 210.73 58.4362C211.577 59.8846 212 61.4827 212 63.2308C212 65.3284 211.502 67.3261 210.506 69.2239C209.56 71.0718 208.215 72.5701 206.472 73.7188C204.729 74.8675 202.736 75.4418 200.495 75.4418Z" fill="white"/>
<path d="M32.0606 73.7937C26.134 73.7937 20.9792 72.7199 16.5965 70.5724C12.2137 68.3749 8.85197 65.2784 6.51118 61.283C4.17039 57.2875 3 52.6429 3 47.3489C3 40.0073 4.36961 33.4897 7.10883 27.7962C9.89786 22.1027 13.6581 17.7078 18.3894 14.6113C23.1208 11.4649 28.3751 9.8917 34.1524 9.8917C39.5312 9.8917 43.6152 11.2901 46.4042 14.0869C49.1932 16.8338 50.5877 20.4796 50.5877 25.0244C50.5877 28.0709 50.0399 30.5181 48.9442 32.366C47.8983 34.2139 46.3793 35.1379 44.3871 35.1379C42.9926 35.1379 41.8969 34.8132 41.1001 34.164C40.3032 33.5147 39.9048 32.5658 39.9048 31.3172C39.9048 30.8677 40.0044 30.0437 40.2036 28.845C40.5024 27.3468 40.6518 26.1481 40.6518 25.2492C40.6518 20.7043 38.2363 18.4319 33.4053 18.4319C30.1183 18.4319 26.9806 19.5057 23.9924 21.6533C21.0042 23.8008 18.5887 26.9722 16.7459 31.1674C14.9032 35.3127 13.9818 40.257 13.9818 46.0004C13.9818 51.9936 15.6502 56.6383 18.9871 59.9345C22.324 63.1808 27.2546 64.804 33.7789 64.804C37.0161 64.804 40.2783 64.4044 43.5654 63.6053C46.9022 62.7563 50.5877 61.4828 54.6219 59.7847C55.3689 59.485 55.9915 59.3352 56.4895 59.3352C57.2864 59.3352 57.884 59.6349 58.2825 60.2342C58.6809 60.8335 58.8801 61.6076 58.8801 62.5565C58.8801 65.603 57.2366 67.8505 53.9495 69.2988C50.4134 70.8471 46.7279 71.9957 42.893 72.7449C39.1079 73.4441 35.4971 73.7937 32.0606 73.7937Z" stroke="black" stroke-opacity="0.1" stroke-width="6" mask="url(#path-1-outside-1_217_7088)"/>
<path d="M62.8057 33.5647C60.7139 33.5647 59.1451 33.0902 58.0992 32.1413C57.0533 31.1424 56.5304 29.769 56.5304 28.021C56.5304 26.273 57.2027 24.8246 58.5474 23.6759C59.9419 22.4773 61.6602 21.878 63.7021 21.878C65.5449 21.878 67.039 22.3275 68.1845 23.2265C69.33 24.1254 69.9027 25.399 69.9027 27.0471C69.9027 29.0448 69.2553 30.643 67.9604 31.8416C66.6655 32.9903 64.9472 33.5647 62.8057 33.5647ZM62.208 73.7937C58.9708 73.7937 56.6051 72.645 55.1109 70.3476C53.6666 68.0503 52.9445 65.0037 52.9445 61.2081C52.9445 58.9606 53.2184 56.0889 53.7662 52.5929C54.3639 49.047 55.111 45.7507 56.0074 42.7042C56.4557 41.106 57.0533 40.0073 57.8004 39.408C58.5474 38.8087 59.7427 38.509 61.3863 38.509C63.9263 38.509 65.1963 39.358 65.1963 41.0561C65.1963 42.3047 64.7231 45.2014 63.7768 49.7462C62.5816 55.2399 61.9839 58.9606 61.9839 60.9084C61.9839 62.4067 62.1831 63.5554 62.5816 64.3545C62.98 65.1536 63.6523 65.5531 64.5986 65.5531C65.4951 65.5531 66.6157 64.9288 67.9604 63.6802C69.3051 62.4317 71.098 60.4589 73.3392 57.762C73.9369 57.0628 74.6092 56.7132 75.3563 56.7132C76.0037 56.7132 76.5018 57.0129 76.8504 57.6122C77.2488 58.2115 77.4481 59.0355 77.4481 60.0844C77.4481 62.0821 76.9749 63.6303 76.0286 64.729C71.098 70.7721 66.4912 73.7937 62.208 73.7937Z" stroke="black" stroke-opacity="0.1" stroke-width="6" mask="url(#path-1-outside-1_217_7088)"/>
<path d="M76.708 73.7937C74.8154 73.7937 73.4707 72.7948 72.6739 70.7971C71.9268 68.7994 71.5533 65.603 71.5533 61.2081C71.5533 54.7155 72.4747 48.5475 74.3174 42.7042C74.7656 41.2559 75.4878 40.2071 76.4839 39.5578C77.5298 38.8586 78.9741 38.509 80.8168 38.509C81.8129 38.509 82.5102 38.6339 82.9086 38.8836C83.307 39.1333 83.5062 39.6077 83.5062 40.3069C83.5062 41.106 83.1327 42.904 82.3857 45.7008C81.8876 47.6985 81.4892 49.4465 81.1904 50.9448C80.8915 52.4431 80.6425 54.291 80.4433 56.4885C82.0868 52.1934 83.9296 48.6974 85.9715 46.0004C88.0135 43.3035 90.0057 41.3807 91.948 40.232C93.9402 39.0833 95.758 38.509 97.4016 38.509C100.639 38.509 102.257 40.1321 102.257 43.3784C102.257 44.0277 102.033 45.6009 101.585 48.098C101.187 50.0958 100.987 51.3443 100.987 51.8438C100.987 53.5918 101.61 54.4658 102.855 54.4658C104.25 54.4658 106.043 53.367 108.234 51.1695C108.881 50.5203 109.554 50.1956 110.251 50.1956C110.898 50.1956 111.396 50.4953 111.745 51.0946C112.144 51.644 112.343 52.3931 112.343 53.3421C112.343 55.1899 111.845 56.6383 110.849 57.6871C109.454 59.1354 107.811 60.384 105.918 61.4328C104.075 62.4317 102.108 62.9311 100.016 62.9311C97.3767 62.9311 95.3596 62.2569 93.9651 60.9084C92.6204 59.5599 91.948 57.737 91.948 55.4397C91.948 54.6905 92.0227 53.9414 92.1721 53.1922C92.2717 52.1934 92.3215 51.5191 92.3215 51.1695C92.3215 50.3704 92.0476 49.9709 91.4998 49.9709C90.7527 49.9709 89.7566 50.8199 88.5115 52.518C87.3162 54.1661 86.1209 56.3636 84.9257 59.1105C83.7304 61.8573 82.7592 64.754 82.0121 67.8005C81.4643 70.1479 80.8168 71.746 80.0698 72.5951C79.3725 73.3941 78.2519 73.7937 76.708 73.7937Z" stroke="black" stroke-opacity="0.1" stroke-width="6" mask="url(#path-1-outside-1_217_7088)"/>
<path d="M119.67 73.7937C114.789 73.7937 110.979 72.4203 108.24 69.6734C105.55 66.8766 104.206 63.2058 104.206 58.661C104.206 54.6156 105.003 51.0696 106.596 48.0231C108.19 44.9766 110.257 42.6293 112.797 40.9812C115.337 39.3331 118.001 38.509 120.79 38.509C123.53 38.509 125.646 39.3331 127.14 40.9812C128.684 42.5794 129.456 44.652 129.456 47.1991C129.456 49.2967 128.983 51.0697 128.037 52.518C127.14 53.9663 125.945 54.6905 124.451 54.6905C123.505 54.6905 122.733 54.4658 122.135 54.0163C121.587 53.5668 121.313 52.9425 121.313 52.1434C121.313 51.7938 121.363 51.3943 121.463 50.9448C121.562 50.4953 121.637 50.1707 121.687 49.9709C121.936 49.2218 122.06 48.5226 122.06 47.8733C122.06 47.224 121.886 46.7246 121.537 46.375C121.239 46.0254 120.79 45.8506 120.193 45.8506C119.047 45.8506 117.976 46.375 116.98 47.4238C115.984 48.4227 115.187 49.7961 114.59 51.5441C113.992 53.2921 113.693 55.2149 113.693 57.3125C113.693 63.1059 116.208 66.0026 121.239 66.0026C123.281 66.0026 125.472 65.3284 127.813 63.9799C130.203 62.5815 132.544 60.5089 134.835 57.762C135.433 57.0628 136.105 56.7132 136.852 56.7132C137.5 56.7132 137.998 57.0129 138.346 57.6122C138.745 58.2115 138.944 59.0355 138.944 60.0844C138.944 61.9822 138.471 63.5304 137.525 64.729C135.184 67.6257 132.37 69.8732 129.083 71.4713C125.845 73.0196 122.708 73.7937 119.67 73.7937Z" stroke="black" stroke-opacity="0.1" stroke-width="6" mask="url(#path-1-outside-1_217_7088)"/>
<path d="M161.219 56.7132C161.866 56.7132 162.364 57.0129 162.713 57.6122C163.111 58.2115 163.31 59.0355 163.31 60.0844C163.31 62.0821 162.837 63.6303 161.891 64.729C159.749 67.376 157.409 69.5485 154.869 71.2466C152.378 72.9447 149.54 73.7937 146.352 73.7937C141.969 73.7937 138.707 71.796 136.566 67.8005C134.474 63.8051 133.428 58.636 133.428 52.2933C133.428 46.2002 134.2 39.2581 135.744 31.467C137.338 23.6759 139.653 16.9836 142.691 11.39C145.779 5.79638 149.44 2.99957 153.673 2.99957C156.064 2.99957 157.932 4.12329 159.276 6.37072C160.671 8.56821 161.368 11.7396 161.368 15.8849C161.368 21.8281 159.724 28.7202 156.437 36.5612C153.15 44.4023 148.693 52.1684 143.065 59.8596C143.414 61.9073 143.986 63.3806 144.783 64.2796C145.58 65.1286 146.626 65.5531 147.921 65.5531C149.963 65.5531 151.756 64.9788 153.3 63.8301C154.844 62.6314 156.811 60.6088 159.202 57.762C159.799 57.0628 160.472 56.7132 161.219 56.7132ZM152.03 10.4161C150.884 10.4161 149.589 12.4887 148.145 16.634C146.701 20.7793 145.431 25.9234 144.335 32.0664C143.239 38.2093 142.642 44.1026 142.542 49.7462C146.078 43.9028 148.892 38.0595 150.984 32.2162C153.076 26.3229 154.122 20.9541 154.122 16.1096C154.122 12.3139 153.424 10.4161 152.03 10.4161Z" stroke="black" stroke-opacity="0.1" stroke-width="6" mask="url(#path-1-outside-1_217_7088)"/>
<path d="M190.591 56.7132C191.238 56.7132 191.736 57.0129 192.085 57.6122C192.483 58.2115 192.683 59.0355 192.683 60.0844C192.683 62.0821 192.21 63.6303 191.263 64.729C189.421 66.9765 186.806 69.0491 183.419 70.9469C180.082 72.8448 176.496 73.7937 172.661 73.7937C167.432 73.7937 163.373 72.3703 160.484 69.5236C157.596 66.6768 156.151 62.7813 156.151 57.8369C156.151 54.3909 156.874 51.1945 158.318 48.2479C159.762 45.2513 161.754 42.879 164.294 41.131C166.884 39.383 169.798 38.509 173.035 38.509C175.924 38.509 178.24 39.383 179.983 41.131C181.726 42.8291 182.597 45.1514 182.597 48.098C182.597 51.5441 181.352 54.5157 178.862 57.0129C176.422 59.4601 172.263 61.4078 166.386 62.8562C167.631 65.1536 169.997 66.3022 173.483 66.3022C175.724 66.3022 178.264 65.5281 181.103 63.9799C183.992 62.3817 186.482 60.3091 188.574 57.762C189.171 57.0628 189.844 56.7132 190.591 56.7132ZM171.765 45.8506C169.922 45.8506 168.353 46.9244 167.059 49.0719C165.813 51.2195 165.191 53.8165 165.191 56.863V57.0129C168.129 56.3137 170.445 55.2649 172.139 53.8665C173.832 52.4681 174.679 50.8449 174.679 48.997C174.679 48.0481 174.405 47.299 173.857 46.7496C173.359 46.1503 172.661 45.8506 171.765 45.8506Z" stroke="black" stroke-opacity="0.1" stroke-width="6" mask="url(#path-1-outside-1_217_7088)"/>
<path d="M200.495 75.4418C197.905 75.4418 195.913 74.8425 194.519 73.6439C193.174 72.4452 192.502 71.0968 192.502 69.5985C192.502 68.3 192.975 67.1762 193.921 66.2273C194.867 65.2784 196.262 64.804 198.105 64.804C198.752 64.804 199.499 64.8789 200.346 65.0287C201.242 65.1286 201.915 65.2035 202.363 65.2534C202.313 63.9549 202.014 62.7313 201.466 61.5826C200.968 60.434 200.321 59.3352 199.524 58.2864C198.727 57.1877 197.98 56.2387 197.283 55.4397C195.739 58.3863 194.195 60.8335 192.651 62.7813C191.157 64.729 189.513 66.5769 187.721 68.3249C186.824 69.2239 185.878 69.6734 184.882 69.6734C184.085 69.6734 183.437 69.3987 182.939 68.8493C182.441 68.25 182.192 67.5258 182.192 66.6768C182.192 65.678 182.541 64.754 183.238 63.905L184.209 62.7064C186.949 59.3102 189.015 56.5134 190.41 54.3159C191.306 52.8676 192.203 51.1446 193.099 49.1469C194.046 47.1491 195.266 44.4272 196.76 40.9812C197.706 38.7837 199.674 37.6849 202.662 37.6849C204.056 37.6849 205.027 37.8098 205.575 38.0595C206.123 38.3092 206.397 38.7088 206.397 39.2581C206.397 39.5578 206.297 40.0323 206.098 40.6815C205.899 41.3308 205.625 41.98 205.276 42.6293C204.38 44.4272 203.932 45.9505 203.932 47.1991C203.932 47.9482 204.181 48.7723 204.679 49.6712C205.227 50.5702 206.048 51.6939 207.144 53.0424C208.738 55.14 209.933 56.9379 210.73 58.4362C211.577 59.8846 212 61.4827 212 63.2308C212 65.3284 211.502 67.3261 210.506 69.2239C209.56 71.0718 208.215 72.5701 206.472 73.7188C204.729 74.8675 202.736 75.4418 200.495 75.4418Z" stroke="black" stroke-opacity="0.1" stroke-width="6" mask="url(#path-1-outside-1_217_7088)"/>
</svg>
